<mxfile host="app.diagrams.net" modified="2023-12-19T14:06:36.792Z" agent="Mozilla/5.0 (Windows NT 10.0; Win64; x64) AppleWebKit/537.36 (KHTML, like Gecko) Chrome/120.0.0.0 Safari/537.36" etag="-WJ7Ua4swHSNCE1rhEaJ" version="22.1.11" type="github" pages="2">
  <diagram name="Page-1" id="efa7a0a1-bf9b-a30e-e6df-94a7791c09e9">
    <mxGraphModel dx="776" dy="390" grid="1" gridSize="10" guides="1" tooltips="1" connect="1" arrows="1" fold="1" page="1" pageScale="1" pageWidth="826" pageHeight="1169" background="none" math="0" shadow="0">
      <root>
        <mxCell id="0" />
        <mxCell id="1" parent="0" />
        <mxCell id="23" value="&lt;p style=&quot;margin: 0px; margin-top: 4px; text-align: center; text-decoration: underline;&quot;&gt;&lt;b&gt;Picture&lt;/b&gt;&lt;/p&gt;&lt;hr&gt;&lt;p style=&quot;margin: 0px; margin-left: 8px;&quot;&gt;Id&lt;/p&gt;&lt;p style=&quot;margin: 0px; margin-left: 8px;&quot;&gt;Url&lt;/p&gt;&lt;p style=&quot;margin: 0px; margin-left: 8px;&quot;&gt;PostId(Post.Id)&lt;/p&gt;" style="verticalAlign=top;align=left;overflow=fill;fontSize=12;fontFamily=Helvetica;html=1;strokeColor=#003366;shadow=1;fillColor=#D4E1F5;fontColor=#003366" parent="1" vertex="1">
          <mxGeometry x="720" y="390" width="120" height="90" as="geometry" />
        </mxCell>
        <mxCell id="24" value="&lt;p style=&quot;margin: 0px; margin-top: 4px; text-align: center; text-decoration: underline;&quot;&gt;&lt;b&gt;User&lt;/b&gt;&lt;/p&gt;&lt;hr&gt;&lt;p style=&quot;margin: 0px; margin-left: 8px;&quot;&gt;Id&lt;/p&gt;&lt;p style=&quot;margin: 0px; margin-left: 8px;&quot;&gt;Name&lt;/p&gt;&lt;p style=&quot;margin: 0px; margin-left: 8px;&quot;&gt;Password&lt;/p&gt;&lt;p style=&quot;margin: 0px; margin-left: 8px;&quot;&gt;Email&lt;/p&gt;" style="verticalAlign=top;align=left;overflow=fill;fontSize=12;fontFamily=Helvetica;html=1;strokeColor=#003366;shadow=1;fillColor=#D4E1F5;fontColor=#003366" parent="1" vertex="1">
          <mxGeometry x="330" y="556.96" width="110" height="103.04" as="geometry" />
        </mxCell>
        <mxCell id="29" value="&lt;p style=&quot;margin: 0px; margin-top: 4px; text-align: center; text-decoration: underline;&quot;&gt;&lt;b&gt;Post&lt;/b&gt;&lt;/p&gt;&lt;hr&gt;&lt;p style=&quot;margin: 0px; margin-left: 8px;&quot;&gt;Id&lt;/p&gt;&lt;p style=&quot;margin: 0px; margin-left: 8px;&quot;&gt;Title&lt;/p&gt;&lt;p style=&quot;margin: 0px; margin-left: 8px;&quot;&gt;Content&lt;/p&gt;&lt;p style=&quot;margin: 0px; margin-left: 8px;&quot;&gt;Author(User.Id)&lt;/p&gt;&lt;p style=&quot;margin: 0px; margin-left: 8px;&quot;&gt;Created&lt;/p&gt;&lt;p style=&quot;margin: 0px; margin-left: 8px;&quot;&gt;&lt;br&gt;&lt;/p&gt;" style="verticalAlign=top;align=left;overflow=fill;fontSize=12;fontFamily=Helvetica;html=1;strokeColor=#003366;shadow=1;fillColor=#D4E1F5;fontColor=#003366" parent="1" vertex="1">
          <mxGeometry x="500" y="540" width="140" height="110" as="geometry" />
        </mxCell>
        <mxCell id="Ccy_jerrXwW2-pl35Vo0-117" style="edgeStyle=orthogonalEdgeStyle;rounded=0;orthogonalLoop=1;jettySize=auto;html=1;exitX=0.5;exitY=1;exitDx=0;exitDy=0;" edge="1" parent="1" source="29" target="29">
          <mxGeometry relative="1" as="geometry" />
        </mxCell>
        <mxCell id="Ccy_jerrXwW2-pl35Vo0-118" value="&lt;p style=&quot;margin: 0px; margin-top: 4px; text-align: center; text-decoration: underline;&quot;&gt;&lt;b&gt;Restraunt&lt;/b&gt;&lt;/p&gt;&lt;hr&gt;&lt;p style=&quot;margin: 0px; margin-left: 8px;&quot;&gt;Id&lt;/p&gt;&lt;p style=&quot;margin: 0px; margin-left: 8px;&quot;&gt;Name&lt;/p&gt;&lt;p style=&quot;margin: 0px; margin-left: 8px;&quot;&gt;Addrest&lt;/p&gt;&lt;p style=&quot;margin: 0px; margin-left: 8px;&quot;&gt;Latitude&lt;/p&gt;&lt;p style=&quot;margin: 0px; margin-left: 8px;&quot;&gt;Longitude&lt;/p&gt;" style="verticalAlign=top;align=left;overflow=fill;fontSize=12;fontFamily=Helvetica;html=1;strokeColor=#003366;shadow=1;fillColor=#D4E1F5;fontColor=#003366" vertex="1" parent="1">
          <mxGeometry x="550" y="360" width="120" height="120" as="geometry" />
        </mxCell>
        <mxCell id="Ccy_jerrXwW2-pl35Vo0-122" value="&lt;p style=&quot;margin: 0px; margin-top: 4px; text-align: center; text-decoration: underline;&quot;&gt;Comment&lt;/p&gt;&lt;hr&gt;&lt;p style=&quot;margin: 0px; margin-left: 8px;&quot;&gt;Id&lt;/p&gt;&lt;p style=&quot;margin: 0px; margin-left: 8px;&quot;&gt;Content&lt;/p&gt;&lt;p style=&quot;margin: 0px; margin-left: 8px;&quot;&gt;Author(User.Id)&lt;/p&gt;&lt;p style=&quot;margin: 0px; margin-left: 8px;&quot;&gt;Created&lt;/p&gt;&lt;p style=&quot;margin: 0px; margin-left: 8px;&quot;&gt;&lt;br&gt;&lt;/p&gt;" style="verticalAlign=top;align=left;overflow=fill;fontSize=12;fontFamily=Helvetica;html=1;strokeColor=#003366;shadow=1;fillColor=#D4E1F5;fontColor=#003366" vertex="1" parent="1">
          <mxGeometry x="730" y="520" width="140" height="110" as="geometry" />
        </mxCell>
        <mxCell id="Ccy_jerrXwW2-pl35Vo0-124" value="&lt;p style=&quot;margin: 0px; margin-top: 4px; text-align: center; text-decoration: underline;&quot;&gt;&lt;b&gt;Tags&lt;/b&gt;&lt;/p&gt;&lt;hr&gt;&lt;p style=&quot;margin: 0px; margin-left: 8px;&quot;&gt;Id&lt;/p&gt;&lt;p style=&quot;margin: 0px; margin-left: 8px;&quot;&gt;Name&lt;/p&gt;&lt;p style=&quot;margin: 0px; margin-left: 8px;&quot;&gt;&lt;br&gt;&lt;/p&gt;" style="verticalAlign=top;align=left;overflow=fill;fontSize=12;fontFamily=Helvetica;html=1;strokeColor=#003366;shadow=1;fillColor=#D4E1F5;fontColor=#003366" vertex="1" parent="1">
          <mxGeometry x="220" y="430" width="90" height="70" as="geometry" />
        </mxCell>
        <mxCell id="Ccy_jerrXwW2-pl35Vo0-125" value="&lt;p style=&quot;margin: 0px; margin-top: 4px; text-align: center; text-decoration: underline;&quot;&gt;&lt;b&gt;Restaurant_Tags&lt;/b&gt;&lt;/p&gt;&lt;hr&gt;&lt;p style=&quot;margin: 0px; margin-left: 8px;&quot;&gt;Id&lt;/p&gt;&lt;p style=&quot;margin: 0px; margin-left: 8px;&quot;&gt;Name&lt;/p&gt;&lt;p style=&quot;margin: 0px; margin-left: 8px;&quot;&gt;&lt;br&gt;&lt;/p&gt;" style="verticalAlign=top;align=left;overflow=fill;fontSize=12;fontFamily=Helvetica;html=1;strokeColor=#003366;shadow=1;fillColor=#D4E1F5;fontColor=#003366" vertex="1" parent="1">
          <mxGeometry x="380" y="390" width="110" height="80" as="geometry" />
        </mxCell>
        <mxCell id="Ccy_jerrXwW2-pl35Vo0-127" value="&lt;p style=&quot;margin: 0px; margin-top: 4px; text-align: center; text-decoration: underline;&quot;&gt;Like&lt;/p&gt;&lt;hr&gt;&lt;p style=&quot;margin: 0px; margin-left: 8px;&quot;&gt;Id&lt;/p&gt;&lt;p style=&quot;margin: 0px; margin-left: 8px;&quot;&gt;Author(User.Id)&lt;/p&gt;" style="verticalAlign=top;align=left;overflow=fill;fontSize=12;fontFamily=Helvetica;html=1;strokeColor=#003366;shadow=1;fillColor=#D4E1F5;fontColor=#003366" vertex="1" parent="1">
          <mxGeometry x="660" y="660" width="110" height="80" as="geometry" />
        </mxCell>
      </root>
    </mxGraphModel>
  </diagram>
  <diagram id="rL33oeDmptGlxk9duOhD" name="페이지-2">
    <mxGraphModel dx="647" dy="325" grid="1" gridSize="10" guides="1" tooltips="1" connect="1" arrows="1" fold="1" page="1" pageScale="1" pageWidth="827" pageHeight="1169" math="0" shadow="0">
      <root>
        <mxCell id="0" />
        <mxCell id="1" parent="0" />
      </root>
    </mxGraphModel>
  </diagram>
</mxfile>
